#!OML:ASF F:\VICON\USERDATA\INSTALL\rory3\rory3.ASF
:FULLY-SPECIFIED
:DEGREES
468
root 0.532343 16.927 29.0448 10.1146 1.44516 3.65715
lowerback -4.82954 0.250669 -5.82862
upperback -3.22479 0.555522 0.0533807
thorax -0.679756 0.368954 3.34744
lowerneck -17.3554 0.88411 0.578512
upperneck 43.6964 2.33975 -2.20596
head 20.0962 0.726737 -0.702409
rclavicle -4.21175e-015 -2.18663e-015
rhumerus -41.8471 -16.7658 -71.0935
rradius 25.6609
rwrist -7.36143
rhand -3.5918 12.167
rfingers 7.12502
rthumb 22.1459 -16.5846
lclavicle -4.21175e-015 -2.18663e-015
lhumerus -31.9006 18.3843 72.9126
lradius 51.2633
lwrist 0.86841
lhand -4.26427 15.6814
lfingers 7.12502
lthumb 21.5002 44.5081
rfemur -42.3479 22.2567 5.87369
rtibia 22.9306
rfoot -23.5777 -31.6245
rtoes -10.638
lfemur 4.4789 -8.71669 -30.5123
ltibia 8.35217
lfoot -16.5166 17.7363
ltoes -17.8303
469
root 0.54557 16.9121 29.1941 10.12 1.79907 4.2796
lowerback -4.80346 0.0360353 -6.11746
upperback -3.27226 0.277091 -0.0643273
thorax -0.717861 0.235144 3.37637
lowerneck -17.3716 0.989157 0.650289
upperneck 43.7521 2.56944 -2.39499
head 20.1536 0.800526 -0.762602
rclavicle 1.39149e-015 8.54774e-015
rhumerus -41.9039 -16.5251 -71.0745
rradius 25.9206
rwrist -7.77343
rhand -3.92219 11.176
rfingers 7.12502
rthumb 21.8287 -17.6129
lclavicle 1.39149e-015 8.54774e-015
lhumerus -32.4029 18.6227 72.583
lradius 50.5463
lwrist 0.601887
lhand -4.45956 15.6399
lfingers 7.12502
lthumb 21.3126 44.4879
rfemur -41.4188 19.5093 6.91074
rtibia 23.4529
rfoot -25.1017 -27.7332
rtoes -5.0084
lfemur 5.00314 -9.05559 -31.2344
ltibia 8.52441
lfoot -16.6264 17.5971
ltoes -18.6465
470
root 0.522975 16.8842 29.3503 10.0824 1.8299 3.74624
lowerback -4.97231 0.0621287 -5.62299
upperback -3.22165 0.306078 0.121411
thorax -0.569764 0.238505 3.29324
lowerneck -17.6478 1.09538 0.755856
upperneck 43.867 2.76225 -2.5131
head 20.3289 0.873902 -0.801078
rclavicle 7.45443e-016 -7.95139e-016
rhumerus -42.0007 -17.3758 -70.3841
rradius 25.0009
rwrist -7.17465
rhand -4.17302 13.6943
rfingers 7.12502
rthumb 21.5878 -15.1224
lclavicle 7.45443e-016 -7.95139e-016
lhumerus -32.7565 18.7478 72.2424
lradius 49.6179
lwrist 0.36711
lhand -4.6458 15.1456
lfingers 7.12502
lthumb 21.1337 44.0138
rfemur -41.5125 20.1278 7.38941
rtibia 23.7182
rfoot -26.0296 -27.052
rtoes 3.62542
lfemur 5.1672 -8.89523 -30.586
ltibia 9.2462
lfoot -17.076 17.281
ltoes -18.7094
471
root 0.505696 16.864 29.5113 10.0761 2.0177 3.4723
lowerback -5.22651 -0.058391 -5.37205
upperback -3.24729 0.15037 0.280348
thorax -0.437869 0.155335 3.31085
lowerneck -17.5169 1.21335 0.838197
upperneck 43.8804 2.99088 -2.66676
head 20.3145 0.955308 -0.845406
rclavicle 5.62809e-015 -9.54166e-015
rhumerus -42.1135 -17.3232 -70.2267
rradius 24.8894
rwrist -7.21618
rhand -4.21564 13.3663
rfingers 7.12502
rthumb 21.5469 -15.4551
lclavicle 5.62809e-015 -9.54166e-015
lhumerus -33.8814 18.8654 71.7743
lradius 49.5457
lwrist 0.232943
lhand -4.57626 14.8049
lfingers 7.12502
lthumb 21.2005 43.6656
rfemur -40.9339 19.4946 8.49046
rtibia 24.162
rfoot -25.8459 -25.9036
rtoes 6.85112
lfemur 5.38555 -8.93206 -30.2482
ltibia 9.93904
lfoot -17.0411 17.2921
ltoes -20.42
472
root 0.495311 16.8418 29.6693 10.0214 2.22076 3.35232
lowerback -5.20542 -0.171193 -5.15972
upperback -3.44227 -0.0151897 0.380698
thorax -0.63426 0.0794712 3.28722
lowerneck -17.3022 1.23285 0.728062
upperneck 44.1049 3.058 -2.6279
head 20.4053 0.968248 -0.796082
rclavicle -1.78751e-014 1.07344e-014
rhumerus -42.4864 -17.2633 -69.9196
rradius 24.6894
rwrist -7.39118
rhand -4.43775 12.9471
rfingers 7.12502
rthumb 21.3335 -15.8986
lclavicle -1.78751e-014 1.07344e-014
lhumerus -34.5871 19.3381 71.1309
lradius 48.3285
lwrist -0.351108
lhand -4.42408 14.0314
lfingers 7.12502
lthumb 21.3467 42.8756
rfemur -40.2603 18.8827 9.31897
rtibia 24.3454
rfoot -25.153 -25.2094
rtoes 7.44459
lfemur 5.43656 -8.99923 -30.1039
ltibia 11.0406
lfoot -17.0946 17.3477
ltoes -23.2202
473
root 0.484774 16.8253 29.8358 9.87765 2.61531 3.13129
lowerback -5.04259 -0.245282 -4.72248
upperback -3.6132 -0.14407 0.410343
thorax -0.887798 0.0176276 3.06617
lowerneck -17.2358 1.23183 0.744097
upperneck 44.3464 2.99963 -2.49525
head 20.5488 0.967288 -0.748054
rclavicle -1.31897e-014 1.63003e-014
rhumerus -42.9595 -17.6487 -69.4762
rradius 24.3536
rwrist -7.36197
rhand -4.65901 13.13
rfingers 7.12502
rthumb 21.121 -15.7396
lclavicle -1.31897e-014 1.63003e-014
lhumerus -35.3437 19.1622 70.6794
lradius 47.5138
lwrist -0.494835
lhand -4.62547 14.0197
lfingers 7.12502
lthumb 21.1532 42.8857
rfemur -39.8028 18.7672 9.89814
rtibia 24.8919
rfoot -24.425 -24.9968
rtoes 8.46598
lfemur 5.97757 -9.03692 -29.778
ltibia 11.4904
lfoot -17.1531 17.0374
ltoes -24.5785
474
root 0.471271 16.817 30.0063 9.81291 2.73199 2.71589
lowerback -4.80288 -0.237262 -4.20757
upperback -3.9961 -0.170731 0.544457
thorax -1.41341 0.0146992 2.91469
lowerneck -16.8583 1.25726 0.710386
upperneck 44.5727 3.0221 -2.40179
head 20.5908 0.986795 -0.694077
rclavicle 5.41688e-015 3.18055e-015
rhumerus -43.8389 -17.5607 -69.0289
rradius 24.3318
rwrist -7.47527
rhand -4.77903 13.429
rfingers 7.12502
rthumb 21.0057 -15.4535
lclavicle 5.41688e-015 3.18055e-015
lhumerus -36.3724 19.019 70.2016
lradius 46.5562
lwrist -0.483996
lhand -4.83527 14.4109
lfingers 7.12502
lthumb 20.9517 43.2993
rfemur -39.7709 19.1172 10.4175
rtibia 25.5702
rfoot -22.7982 -25.1887
rtoes 7.83078
lfemur 6.6174 -9.00315 -29.3099
ltibia 11.5771
lfoot -17.2102 16.7807
ltoes -25.229
475
root 0.456915 16.8173 30.1833 9.71677 2.73178 2.4105
lowerback -5.54956 -0.239448 -3.81663
upperback -3.65473 -0.149976 0.649519
thorax -0.645095 -0.00305935 2.80303
lowerneck -17.034 1.23872 0.518067
upperneck 44.4782 3.00132 -2.26667
head 20.5671 0.962221 -0.591987
rclavicle -1.8355e-014 8.34896e-015
rhumerus -43.5843 -18.0789 -68.7751
rradius 24.1229
rwrist -7.11723
rhand -4.7816 13.6817
rfingers 7.12502
rthumb 21.0032 -15.201
lclavicle -1.8355e-014 8.34896e-015
lhumerus -36.1663 19.6286 69.9471
lradius 45.1141
lwrist -0.771311
lhand -4.82599 15.1278
lfingers 7.12502
lthumb 20.9606 44.0152
rfemur -39.6859 19.4063 10.8876
rtibia 26.2967
rfoot -21.2791 -24.9364
rtoes 8.10153
lfemur 7.36137 -9.00538 -28.9989
ltibia 11.5482
lfoot -17.2016 16.5131
ltoes -26.3175
476
root 0.457196 16.821 30.3621 9.56452 2.98395 2.24275
lowerback -5.76258 -0.335312 -3.37506
upperback -3.75865 -0.290544 0.714042
thorax -0.62306 -0.0790509 2.61385
lowerneck -16.5296 1.27827 0.478581
upperneck 44.5231 3.12644 -2.3633
head 20.4518 0.995227 -0.610659
rclavicle 1.89467e-015 -3.18055e-015
rhumerus -43.9864 -18.3139 -68.2838
rradius 23.9368
rwrist -6.80065
rhand -4.66803 13.3263
rfingers 7.12502
rthumb 21.1123 -15.5443
lclavicle 1.89467e-015 -3.18055e-015
lhumerus -37.0516 20.0381 69.3913
lradius 43.9034
lwrist -0.872907
lhand -4.5892 16.3795
lfingers 7.12502
lthumb 21.1881 45.2416
rfemur -39.2768 18.7851 11.6073
rtibia 27.1386
rfoot -19.6479 -24.0248
rtoes 7.41606
lfemur 8.31179 -9.12502 -28.861
ltibia 11.3215
lfoot -16.5637 16.5724
ltoes -27.6862
477
root 0.440339 16.8251 30.547 9.61363 2.96787 2.08955
lowerback -6.25881 -0.35723 -3.2344
upperback -3.81873 -0.310378 0.867702
thorax -0.407936 -0.0926416 2.691
lowerneck -16.4281 1.30411 0.341009
upperneck 44.664 3.25485 -2.41256
head 20.5242 1.0144 -0.585665
rclavicle 2.80162e-015 -2.78299e-015
rhumerus -44.1832 -18.5756 -67.7379
rradius 23.6615
rwrist -6.35423
rhand -4.63327 12.8362
rfingers 7.12502
rthumb 21.1457 -16.0306
lclavicle 2.80162e-015 -2.78299e-015
lhumerus -37.8462 20.5346 69.0565
lradius 42.852
lwrist -0.840691
lhand -4.69134 17.3422
lfingers 7.12502
lthumb 21.09 46.2153
rfemur -38.9981 18.6566 12.1289
rtibia 27.6871
rfoot -18.4575 -23.169
rtoes 7.92925
lfemur 8.391 -9.05028 -28.6489
ltibia 12.1217
lfoot -15.6829 16.8452
ltoes -27.3458
